<?xml version="1.0" encoding="UTF-8"?>
<!DOCTYPE svg PUBLIC "-//W3C//DTD SVG 1.1//EN" "http://www.w3.org/Graphics/SVG/1.1/DTD/svg11.dtd">
<!-- Creator: CorelDRAW -->
<svg xmlns="http://www.w3.org/2000/svg" xml:space="preserve" width="6.82666in" height="6.82666in" style="shape-rendering:geometricPrecision; text-rendering:geometricPrecision; image-rendering:optimizeQuality; fill-rule:evenodd; clip-rule:evenodd"
viewBox="0 0 6.82666 6.82666"
 xmlns:xlink="http://www.w3.org/1999/xlink">
 <defs>
  <style type="text/css">
   <![CDATA[
    .fil2 {fill:none}
    .fil7 {fill:#333333}
    .fil5 {fill:#424242}
    .fil3 {fill:#464748}
    .fil1 {fill:#B71C1C}
    .fil0 {fill:#D32F2F}
    .fil4 {fill:#E0E0E0}
    .fil6 {fill:#FFBF5C}
   ]]>
  </style>
   <clipPath id="id0">
    <path d="M3.41333 0c1.88513,0 3.41333,1.5282 3.41333,3.41333 0,1.88513 -1.5282,3.41333 -3.41333,3.41333 -1.88513,0 -3.41333,-1.5282 -3.41333,-3.41333 0,-1.88513 1.5282,-3.41333 3.41333,-3.41333z"/>
   </clipPath>
 </defs>
 <g id="Layer_x0020_1">
  <metadata id="CorelCorpID_0Corel-Layer"/>
  <path class="fil0" d="M3.41333 0c1.88513,0 3.41333,1.5282 3.41333,3.41333 0,1.88513 -1.5282,3.41333 -3.41333,3.41333 -1.88513,0 -3.41333,-1.5282 -3.41333,-3.41333 0,-1.88513 1.5282,-3.41333 3.41333,-3.41333z"/>
  <g style="clip-path:url(#id0)">
   <g id="_328325712">
    <g>
     <polygon id="_3305561361" class="fil1" points="4.5457,1.60994 8.33196,5.39621 8.33712,5.40278 8.34197,5.40958 8.34649,5.41663 8.35068,5.4239 8.35452,5.43139 8.35801,5.43908 8.36112,5.44696 8.36386,5.45502 8.36621,5.46326 8.36815,5.47165 8.36969,5.48019 8.37079,5.48887 8.37146,5.49767 8.37169,5.50658 4.58543,1.72031 4.5852,1.71139 4.58452,1.70259 4.58342,1.69392 4.58189,1.68538 4.57994,1.67698 4.57759,1.66875 4.57485,1.66069 4.57174,1.65281 4.56826,1.64512 4.56441,1.63763 4.56022,1.63036 4.5557,1.62331 4.55085,1.6165 "/>
     <polygon id="_330555776" class="fil1" points="4.58543,1.72031 8.37169,5.50658 8.37169,8.89262 4.58543,5.10635 "/>
     <polygon id="_330556928" class="fil1" points="4.58543,5.10635 8.37169,8.89262 8.37146,8.90154 8.37079,8.91034 8.36969,8.91902 8.36815,8.92756 8.36621,8.93595 8.36386,8.94418 8.36112,8.95224 8.35801,8.96013 8.35452,8.96781 8.35068,8.9753 8.34649,8.98257 8.34197,8.98962 8.33712,8.99643 8.33196,9.00299 8.3265,9.0093 8.32075,9.01533 4.53448,5.22906 4.54024,5.22302 4.5457,5.21672 4.55085,5.21016 4.5557,5.20335 4.56022,5.1963 4.56441,5.18903 4.56826,5.18154 4.57174,5.17385 4.57485,5.16597 4.57759,5.15791 4.57994,5.14968 4.58189,5.14128 4.58342,5.13274 4.58452,5.12407 4.5852,5.11527 "/>
     <polygon id="_330556688" class="fil1" points="4.53448,5.22906 8.32075,9.01533 8.31472,9.02108 8.30842,9.02654 8.30185,9.0317 8.29505,9.03654 8.288,9.04107 8.28073,9.04526 8.27324,9.0491 8.26556,9.05258 8.25767,9.0557 8.24961,9.05844 8.24137,9.06078 8.23298,9.06273 8.22444,9.06426 8.21577,9.06537 8.20696,9.06604 8.19805,9.06627 4.41178,5.28 4.4207,5.27977 4.4295,5.27909 4.43818,5.27799 4.44672,5.27646 4.45511,5.27451 4.46334,5.27217 4.47141,5.26943 4.47929,5.26631 4.48698,5.26283 4.49446,5.25898 4.50173,5.2548 4.50878,5.25027 4.51559,5.24543 4.52215,5.24027 4.52845,5.23481 "/>
     <polygon id="_330556736" class="fil1" points="4.41178,5.28 8.19805,9.06627 6.20115,9.06627 2.41489,5.28 "/>
     <polygon id="_330557264" class="fil1" points="2.41489,5.28 6.20115,9.06627 6.19224,9.06604 6.18343,9.06537 6.17476,9.06426 6.16622,9.06273 6.15783,9.06078 6.14959,9.05844 6.14153,9.0557 6.13365,9.05258 6.12596,9.0491 6.11847,9.04526 6.1112,9.04107 6.10415,9.03654 6.09735,9.0317 6.09078,9.02654 2.30452,5.24027 2.31108,5.24543 2.31789,5.25027 2.32493,5.2548 2.3322,5.25898 2.33969,5.26283 2.34738,5.26631 2.35526,5.26943 2.36332,5.27217 2.37156,5.27451 2.37995,5.27646 2.38849,5.27799 2.39717,5.27909 2.40597,5.27977 "/>
    </g>
    <path id="_328326120" class="fil1" d="M2.41489 1.54667l1.99689 0c0.0478425,0 0.0912717,0.0195157 0.122705,0.0509409 0.0314252,0.0314331 0.0509409,0.0748661 0.0509409,0.122705l0 3.38604c0,0.0478386 -0.0195157,0.0912717 -0.0509409,0.122705 -0.0314331,0.0314252 -0.0748622,0.0509409 -0.122705,0.0509409l-1.99689 0c-0.0478425,0 -0.0912717,-0.0195157 -0.122705,-0.0509409 -0.0314291,-0.0314331 -0.0509409,-0.0748661 -0.0509409,-0.122705l0 -3.38604c0,-0.0478386 0.0195118,-0.0912717 0.0509409,-0.122705 0.0314331,-0.0314252 0.0748622,-0.0509409 0.122705,-0.0509409z"/>
   </g>
  </g>
  <path class="fil2" d="M3.41333 0c1.88513,0 3.41333,1.5282 3.41333,3.41333 0,1.88513 -1.5282,3.41333 -3.41333,3.41333 -1.88513,0 -3.41333,-1.5282 -3.41333,-3.41333 0,-1.88513 1.5282,-3.41333 3.41333,-3.41333z"/>
  <path class="fil3" d="M2.41489 1.54667l1.99689 0c0.0478425,0 0.0912717,0.0195157 0.122705,0.0509409 0.0314252,0.0314331 0.0509409,0.0748661 0.0509409,0.122705l0 3.38604c0,0.0478386 -0.0195157,0.0912717 -0.0509409,0.122705 -0.0314331,0.0314252 -0.0748622,0.0509409 -0.122705,0.0509409l-1.99689 0c-0.0478425,0 -0.0912717,-0.0195157 -0.122705,-0.0509409 -0.0314291,-0.0314331 -0.0509409,-0.0748661 -0.0509409,-0.122705l0 -3.38604c0,-0.0478386 0.0195118,-0.0912717 0.0509409,-0.122705 0.0314331,-0.0314252 0.0748622,-0.0509409 0.122705,-0.0509409z"/>
  <path class="fil4" d="M2.41489 1.62444c-0.0255472,0 -0.0496614,0.0101102 -0.0677087,0.0281575 -0.0180472,0.0180472 -0.0281575,0.0421614 -0.0281575,0.0677087l0 3.38604c0,0.0255472 0.0101102,0.0496614 0.0281575,0.0677087 0.0180472,0.0180472 0.0421614,0.0281575 0.0677087,0.0281575l1.99689 0c0.0255472,0 0.0496614,-0.0101102 0.0677087,-0.0281575 0.0180472,-0.0180472 0.0281575,-0.0421614 0.0281575,-0.0677087l0 -3.38604c0,-0.0255472 -0.0101102,-0.0496614 -0.0281575,-0.0677087 -0.0180472,-0.0180472 -0.0421614,-0.0281575 -0.0677087,-0.0281575l-1.99689 0z"/>
  <path class="fil5" d="M3.65891 2.34295c-0.0628386,-0.0628386 -0.149665,-0.101709 -0.245575,-0.101709 -0.0959094,0 -0.182736,0.0388701 -0.245575,0.101709 -0.0628346,0.0628346 -0.101705,0.149665 -0.101705,0.245571 0,0.0959055 0.0388701,0.182736 0.101705,0.245575 0.0628386,0.0628386 0.149665,0.101709 0.245575,0.101709 0.0959094,0 0.182736,-0.0388701 0.245575,-0.101709 0.0628346,-0.0628386 0.101705,-0.149669 0.101705,-0.245575 0,-0.0959055 -0.0388701,-0.182736 -0.101705,-0.245571z"/>
  <path class="fil5" d="M3.41333 2.0676c0.143839,0 0.274071,0.058315 0.368346,0.152579 0.0942638,0.0942756 0.152583,0.224508 0.152583,0.368346 0,0.143839 -0.0583189,0.274075 -0.152583,0.368346 -0.0942756,0.0942677 -0.224508,0.152587 -0.368346,0.152587 -0.143839,0 -0.274071,-0.0583189 -0.368346,-0.152587 -0.0942638,-0.0942717 -0.152583,-0.224508 -0.152583,-0.368346 0,-0.143839 0.0583189,-0.274071 0.152583,-0.368346 0.0942756,-0.0942638 0.224508,-0.152579 0.368346,-0.152579z"/>
  <path class="fil3" d="M3.41333 3.45674c0.203776,0 0.388272,0.0826063 0.521827,0.216157 0.133551,0.133551 0.216157,0.318051 0.216157,0.521827 0,0.20378 -0.0826063,0.388276 -0.216157,0.521827 -0.133555,0.133551 -0.318051,0.216157 -0.521827,0.216157 -0.203776,0 -0.388272,-0.0826063 -0.521827,-0.216157 -0.133551,-0.133551 -0.216157,-0.318047 -0.216157,-0.521827 0,-0.203776 0.0826063,-0.388276 0.216157,-0.521827 0.133555,-0.133551 0.318051,-0.216157 0.521827,-0.216157z"/>
  <path class="fil3" d="M4.23813 1.80713c0.0479528,0 0.0868228,0.0388701 0.0868228,0.0868228 0,0.0479488 -0.0388701,0.0868189 -0.0868228,0.0868189 -0.0479488,0 -0.0868189,-0.0388701 -0.0868189,-0.0868189 0,-0.0479528 0.0388701,-0.0868228 0.0868189,-0.0868228z"/>
  <path class="fil6" d="M3.41333 3.64666c0.151335,0 0.28835,0.0613465 0.387535,0.160528 0.0991811,0.099185 0.160528,0.236201 0.160528,0.387535 0,0.151335 -0.0613465,0.28835 -0.160528,0.387531 -0.099185,0.099185 -0.236201,0.160531 -0.387535,0.160531 -0.151335,0 -0.28835,-0.0613465 -0.387535,-0.160531 -0.0991811,-0.0991811 -0.160528,-0.236197 -0.160528,-0.387531 0,-0.151335 0.0613465,-0.28835 0.160528,-0.387535 0.099185,-0.0991811 0.236201,-0.160528 0.387535,-0.160528z"/>
  <path class="fil3" d="M2.58044 1.80713c0.0479488,0 0.0868189,0.0388701 0.0868189,0.0868228 0,0.0479488 -0.0388701,0.0868189 -0.0868189,0.0868189 -0.0479488,0 -0.0868189,-0.0388701 -0.0868189,-0.0868189 0,-0.0479528 0.0388701,-0.0868228 0.0868189,-0.0868228z"/>
  <path class="fil3" d="M4.23813 4.84589c0.0479528,0 0.0868228,0.0388701 0.0868228,0.0868189 0,0.0479528 -0.0388701,0.0868228 -0.0868228,0.0868228 -0.0479488,0 -0.0868189,-0.0388701 -0.0868189,-0.0868228 0,-0.0479488 0.0388701,-0.0868189 0.0868189,-0.0868189z"/>
  <path class="fil3" d="M2.58044 4.84589c0.0479488,0 0.0868189,0.0388701 0.0868189,0.0868189 0,0.0479528 -0.0388701,0.0868228 -0.0868189,0.0868228 -0.0479488,0 -0.0868189,-0.0388701 -0.0868189,-0.0868228 0,-0.0479488 0.0388701,-0.0868189 0.0868189,-0.0868189z"/>
  <path class="fil5" d="M3.5452 4.06285c-0.0337402,-0.0337441 -0.0803661,-0.0546181 -0.131874,-0.0546181 -0.0515079,0 -0.0981339,0.020874 -0.131874,0.0546181 -0.0337441,0.0337441 -0.0546181,0.0803661 -0.0546181,0.131874 0,0.0515039 0.020878,0.0981378 0.0546181,0.131878 0.0337402,0.0337402 0.0803661,0.0546142 0.131874,0.0546142 0.0515079,0 0.0981339,-0.020874 0.131874,-0.0546142 0.0337402,-0.0337402 0.0546181,-0.080374 0.0546181,-0.131878 0,-0.0515079 -0.020874,-0.0981299 -0.0546181,-0.131874z"/>
  <path class="fil7" d="M3.41333 3.88909c0.0843898,0 0.160799,0.0342205 0.21611,0.0895276 0.055311,0.055315 0.0895236,0.13172 0.0895236,0.21611 0,0.0843898 -0.0342126,0.160803 -0.0895236,0.21611 -0.055311,0.055315 -0.13172,0.0895236 -0.21611,0.0895236 -0.0843898,0 -0.160799,-0.0342087 -0.21611,-0.0895236 -0.055311,-0.0553071 -0.0895236,-0.13172 -0.0895236,-0.21611 0,-0.0843898 0.0342126,-0.160795 0.0895236,-0.21611 0.055311,-0.0553071 0.13172,-0.0895276 0.21611,-0.0895276z"/>
  <path class="fil7" d="M3.41333 2.3322c0.0707756,0 0.134858,0.0286929 0.181244,0.0750787 0.0463819,0.0463858 0.0750787,0.110469 0.0750787,0.181244 0,0.0707717 -0.0286969,0.134854 -0.0750787,0.181244 -0.0463858,0.0463819 -0.110469,0.0750787 -0.181244,0.0750787 -0.0707756,0 -0.134858,-0.0286969 -0.181244,-0.0750787 -0.0463819,-0.0463898 -0.0750787,-0.110472 -0.0750787,-0.181244 0,-0.0707756 0.0286969,-0.134858 0.0750787,-0.181244 0.0463858,-0.0463858 0.110469,-0.0750787 0.181244,-0.0750787z"/>
 </g>
</svg>
