<svg xmlns="http://www.w3.org/2000/svg" width="128" height="128" viewBox="0 0 128 128">
  <title>MIXER</title>
  <g>
    <rect x="6.306" y="6.306" width="115.387" height="115.387" rx="5" fill="#42db8f"/>
    <rect x="19.503" y="19.503" width="88.994" height="30.946" fill="#e5e5e5"/>
    <path d="M64,110.247a1.751,1.751,0,0,1-1.75-1.75V63.019a1.75,1.75,0,0,1,3.5,0V108.5A1.751,1.751,0,0,1,64,110.247Z" fill="#e5e5e5"/>
    <path d="M45.057,110.247a1.75,1.75,0,0,1-1.75-1.75V63.019a1.75,1.75,0,1,1,3.5,0V108.5A1.751,1.751,0,0,1,45.057,110.247Z" fill="#e5e5e5"/>
    <path d="M103.261,110.247a1.751,1.751,0,0,1-1.75-1.75V63.019a1.75,1.75,0,0,1,3.5,0V108.5A1.75,1.75,0,0,1,103.261,110.247Z" fill="#e5e5e5"/>
    <path d="M24.739,110.247a1.75,1.75,0,0,1-1.75-1.75V63.019a1.75,1.75,0,0,1,3.5,0V108.5A1.751,1.751,0,0,1,24.739,110.247Z" fill="#e5e5e5"/>
    <path d="M83.631,110.247a1.751,1.751,0,0,1-1.75-1.75V63.019a1.75,1.75,0,0,1,3.5,0V108.5A1.751,1.751,0,0,1,83.631,110.247Z" fill="#e5e5e5"/>
    <path d="M100.264,44.463H94.191a1.75,1.75,0,0,1,0-3.5h6.073a1.75,1.75,0,0,1,0,3.5Z" fill="#f7b82d"/>
    <path d="M100.264,36.726H94.191a1.75,1.75,0,0,1,0-3.5h6.073a1.75,1.75,0,1,1,0,3.5Z" fill="#f7b82d"/>
    <path d="M33.809,44.463H27.736a1.75,1.75,0,1,1,0-3.5h6.073a1.75,1.75,0,0,1,0,3.5Z" fill="#f7b82d"/>
    <path d="M33.809,36.726H27.736a1.75,1.75,0,0,1,0-3.5h6.073a1.75,1.75,0,0,1,0,3.5Z" fill="#f7b82d"/>
    <path d="M50.423,44.463H44.35a1.75,1.75,0,0,1,0-3.5h6.073a1.75,1.75,0,0,1,0,3.5Z" fill="#f7b82d"/>
    <path d="M67.036,44.463H60.964a1.75,1.75,0,0,1,0-3.5h6.072a1.75,1.75,0,0,1,0,3.5Z" fill="#f7b82d"/>
    <path d="M67.036,36.726H60.964a1.75,1.75,0,0,1,0-3.5h6.072a1.75,1.75,0,0,1,0,3.5Z" fill="#f7b82d"/>
    <path d="M67.036,28.989H60.964a1.75,1.75,0,0,1,0-3.5h6.072a1.75,1.75,0,0,1,0,3.5Z" fill="#f7b82d"/>
    <path d="M83.65,44.463H77.577a1.75,1.75,0,0,1,0-3.5H83.65a1.75,1.75,0,0,1,0,3.5Z" fill="#f7b82d"/>
    <rect x="58.764" y="93.211" width="10.472" height="5.755" fill="#f74a37"/>
    <rect x="39.821" y="83.211" width="10.472" height="5.755" fill="#f74a37"/>
    <rect x="98.026" y="83.211" width="10.472" height="5.755" fill="#f74a37"/>
    <rect x="19.503" y="73.211" width="10.472" height="5.755" fill="#f74a37"/>
    <rect x="78.395" y="73.211" width="10.472" height="5.755" fill="#f74a37"/>
  </g>
</svg>
